<svg viewBox="0 0 800 600" xmlns="http://www.w3.org/2000/svg">
  <rect width="800" height="600" fill="#151e32" />
  
  <text x="400" y="580" text-anchor="middle" fill="#94a3b8" font-family="sans-serif" font-size="20">ENTRANCE</text>
  
  <text x="100" y="40" fill="#ffc4d6" font-family="sans-serif" font-weight="bold" font-size="24">FICTION (A)</text>
  <rect id="shelf-A-10" x="50" y="60" width="80" height="150" fill="#252f46" stroke="#334155" stroke-width="2" rx="5" />
  <text x="90" y="140" fill="#64748b" text-anchor="middle" font-size="14" transform="rotate(-90 90,140)">Shelf A-10</text>
  
  <rect id="shelf-A-12" x="150" y="60" width="80" height="150" fill="#252f46" stroke="#334155" stroke-width="2" rx="5" />
  <text x="190" y="140" fill="#64748b" text-anchor="middle" font-size="14" transform="rotate(-90 190,140)">Shelf A-12</text>
  
  <rect id="shelf-A-15" x="250" y="60" width="80" height="150" fill="#252f46" stroke="#334155" stroke-width="2" rx="5" />
  <text x="290" y="140" fill="#64748b" text-anchor="middle" font-size="14" transform="rotate(-90 290,140)">Shelf A-15</text>

  <text x="500" y="40" fill="#c4b5fd" font-family="sans-serif" font-weight="bold" font-size="24">NON-FICTION (B)</text>
  <rect id="shelf-B-04" x="450" y="60" width="80" height="150" fill="#252f46" stroke="#334155" stroke-width="2" rx="5" />
  <text x="490" y="140" fill="#64748b" text-anchor="middle" font-size="14" transform="rotate(-90 490,140)">Shelf B-04</text>
  
  <rect id="shelf-B-11" x="550" y="60" width="80" height="150" fill="#252f46" stroke="#334155" stroke-width="2" rx="5" />
  <text x="590" y="140" fill="#64748b" text-anchor="middle" font-size="14" transform="rotate(-90 590,140)">Shelf B-11</text>

  <text x="100" y="300" fill="#f9a8d4" font-family="sans-serif" font-weight="bold" font-size="24">ROMANCE (C)</text>
  <rect id="shelf-C-01" x="50" y="320" width="80" height="150" fill="#252f46" stroke="#334155" stroke-width="2" rx="5" />
  <text x="90" y="400" fill="#64748b" text-anchor="middle" font-size="14" transform="rotate(-90 90,400)">Shelf C-01</text>
  
  <rect id="shelf-C-05" x="150" y="320" width="80" height="150" fill="#252f46" stroke="#334155" stroke-width="2" rx="5" />
  <text x="190" y="400" fill="#64748b" text-anchor="middle" font-size="14" transform="rotate(-90 190,400)">Shelf C-05</text>

  <text x="500" y="300" fill="#93c5fd" font-family="sans-serif" font-weight="bold" font-size="24">SCIENCE (D)</text>
  <rect id="shelf-D-02" x="450" y="320" width="80" height="150" fill="#252f46" stroke="#334155" stroke-width="2" rx="5" />
  <text x="490" y="400" fill="#64748b" text-anchor="middle" font-size="14" transform="rotate(-90 490,400)">Shelf D-02</text>
  
  <rect id="shelf-D-09" x="550" y="320" width="80" height="150" fill="#252f46" stroke="#334155" stroke-width="2" rx="5" />
  <text x="590" y="400" fill="#64748b" text-anchor="middle" font-size="14" transform="rotate(-90 590,400)">Shelf D-09</text>

  <text x="350" y="300" fill="#d8b4fe" font-family="sans-serif" font-weight="bold" font-size="24">HISTORY</text>
  <rect id="shelf-E-01" x="320" y="320" width="80" height="150" fill="#252f46" stroke="#334155" stroke-width="2" rx="5" />
  <text x="360" y="400" fill="#64748b" text-anchor="middle" font-size="14" transform="rotate(-90 360,400)">Shelf E-01</text>
</svg>
