<svg viewBox="0 0 800 600" xmlns="http://www.w3.org/2000/svg">
  <rect width="800" height="600" fill="#151e32" />

  <rect x="600" y="0" width="200" height="600" fill="#0b1121" opacity="0.6" />
  <text x="700" y="300" text-anchor="middle" fill="#334155" font-family="sans-serif" font-size="24" font-weight="bold" transform="rotate(90 700,300)">ELEMENTARY AREA</text>
  <line x1="600" y1="0" x2="600" y2="600" stroke="#334155" stroke-width="3" stroke-dasharray="10,5"/>

  <rect x="300" y="50" width="200" height="100" fill="#1e293b" rx="10" />
  <text x="400" y="110" text-anchor="middle" fill="#94a3b8" font-family="sans-serif" font-weight="bold" font-size="16">LIBRARIAN</text>
  <circle cx="400" cy="80" r="15" fill="#334155" />

  <circle cx="150" cy="300" r="40" fill="#1e293b" stroke="#334155" stroke-width="2" />
  <text x="150" y="305" text-anchor="middle" fill="#475569" font-size="12">TABLE</text>
  <circle cx="350" cy="300" r="40" fill="#1e293b" stroke="#334155" stroke-width="2" />
  <text x="350" y="305" text-anchor="middle" fill="#475569" font-size="12">TABLE</text>

  <text x="80" y="40" text-anchor="middle" fill="#ffc4d6" font-family="sans-serif" font-weight="bold" font-size="14">SHELF 2 (A)</text>
  <rect id="shelf-A-10" x="50" y="50" width="60" height="150" fill="#252f46" stroke="#475569" stroke-width="2" rx="4" />
  <text x="80" y="125" fill="#64748b" text-anchor="middle" font-size="12" transform="rotate(-90 80,125)">A-10 / A-12</text>
  
  <text x="180" y="40" text-anchor="middle" fill="#c4b5fd" font-family="sans-serif" font-weight="bold" font-size="14">SHELF 3 (B)</text>
  <rect id="shelf-B-04" x="150" y="50" width="60" height="150" fill="#252f46" stroke="#475569" stroke-width="2" rx="4" />
  <text x="180" y="125" fill="#64748b" text-anchor="middle" font-size="12" transform="rotate(-90 180,125)">B-04 / B-11</text>

  <rect id="shelf-C-01" x="50" y="220" width="60" height="120" fill="#252f46" stroke="#475569" stroke-width="2" rx="4" />
  <text x="80" y="280" fill="#64748b" text-anchor="middle" font-size="12" transform="rotate(-90 80,280)">C-01 (Rom)</text>

  <rect id="shelf-D-02" x="150" y="220" width="60" height="120" fill="#252f46" stroke="#475569" stroke-width="2" rx="4" />
  <text x="180" y="280" fill="#64748b" text-anchor="middle" font-size="12" transform="rotate(-90 180,280)">D-02 (Sci)</text>


  <text x="250" y="470" text-anchor="middle" fill="#d8b4fe" font-family="sans-serif" font-weight="bold" font-size="16">SHELF 1 (E)</text>
  <rect id="shelf-E-01" x="50" y="480" width="400" height="60" fill="#252f46" stroke="#475569" stroke-width="2" rx="4" />
  <text x="250" y="515" fill="#64748b" text-anchor="middle" font-size="12">HISTORY SECTION (E-01)</text>

  <path d="M 480 600 L 580 600 L 580 570 L 480 570 Z" fill="#334155" />
  <text x="530" y="560" text-anchor="middle" fill="#94a3b8" font-family="sans-serif" font-weight="bold" font-size="14">ENTRANCE</text>

  <circle cx="530" cy="500" r="15" fill="#ef4444" stroke="white" stroke-width="3">
     <animate attributeName="r" values="15;18;15" dur="1.5s" repeatCount="indefinite" />
     <animate attributeName="opacity" values="1;0.8;1" dur="1.5s" repeatCount="indefinite" />
  </circle>
  <text x="530" y="470" text-anchor="middle" fill="#ef4444" font-family="sans-serif" font-weight="bold" font-size="12">PC (YOU)</text>

</svg>
