<svg viewBox="0 0 800 600" xmlns="http://www.w3.org/2000/svg">
  <rect width="800" height="600" fill="#151e32" />
  
  <rect x="0" y="0" width="350" height="600" fill="#0b1121" opacity="0.5" />
  <text x="175" y="300" text-anchor="middle" fill="#334155" font-family="sans-serif" font-size="24" transform="rotate(-90 175,300)">ELEMENTARY SECTION</text>

  <path d="M 350 600 L 450 600 L 450 580 L 350 580 Z" fill="#334155" />
  <text x="400" y="570" text-anchor="middle" fill="#94a3b8" font-family="sans-serif" font-weight="bold" font-size="16">ENTRANCE</text>

  <circle cx="400" cy="300" r="15" fill="#ef4444" stroke="white" stroke-width="3">
     <animate attributeName="r" values="15;18;15" dur="1.5s" repeatCount="indefinite" />
  </circle>
  <text x="400" y="340" text-anchor="middle" fill="#ef4444" font-family="sans-serif" font-weight="bold" font-size="14">YOU ARE HERE</text>

  <text x="500" y="40" fill="#ffc4d6" font-family="sans-serif" font-weight="bold" font-size="20">FICTION (A)</text>
  <rect id="shelf-A-10" x="450" y="60" width="60" height="120" fill="#252f46" stroke="#334155" stroke-width="2" rx="4" />
  <text x="480" y="120" fill="#64748b" text-anchor="middle" font-size="12" transform="rotate(-90 480,120)">A-10</text>
  
  <rect id="shelf-A-12" x="520" y="60" width="60" height="120" fill="#252f46" stroke="#334155" stroke-width="2" rx="4" />
  <text x="550" y="120" fill="#64748b" text-anchor="middle" font-size="12" transform="rotate(-90 550,120)">A-12</text>
  
  <rect id="shelf-A-15" x="590" y="60" width="60" height="120" fill="#252f46" stroke="#334155" stroke-width="2" rx="4" />
  <text x="620" y="120" fill="#64748b" text-anchor="middle" font-size="12" transform="rotate(-90 620,120)">A-15</text>

  <text x="700" y="40" fill="#c4b5fd" font-family="sans-serif" font-weight="bold" font-size="20">NON-FIC (B)</text>
  <rect id="shelf-B-04" x="680" y="60" width="60" height="120" fill="#252f46" stroke="#334155" stroke-width="2" rx="4" />
  <text x="710" y="120" fill="#64748b" text-anchor="middle" font-size="12" transform="rotate(-90 710,120)">B-04</text>
  
  <rect id="shelf-B-11" x="750" y="60" width="60" height="120" fill="#252f46" stroke="#334155" stroke-width="2" rx="4" />
  <text x="780" y="120" fill="#64748b" text-anchor="middle" font-size="12" transform="rotate(-90 780,120)">B-11</text>

  <text x="500" y="250" fill="#f9a8d4" font-family="sans-serif" font-weight="bold" font-size="20">ROMANCE (C)</text>
  <rect id="shelf-C-01" x="450" y="270" width="60" height="120" fill="#252f46" stroke="#334155" stroke-width="2" rx="4" />
  <text x="480" y="330" fill="#64748b" text-anchor="middle" font-size="12" transform="rotate(-90 480,330)">C-01</text>
  
  <rect id="shelf-C-05" x="520" y="270" width="60" height="120" fill="#252f46" stroke="#334155" stroke-width="2" rx="4" />
  <text x="550" y="330" fill="#64748b" text-anchor="middle" font-size="12" transform="rotate(-90 550,330)">C-05</text>

  <text x="700" y="250" fill="#93c5fd" font-family="sans-serif" font-weight="bold" font-size="20">SCIENCE (D)</text>
  <rect id="shelf-D-02" x="680" y="270" width="60" height="120" fill="#252f46" stroke="#334155" stroke-width="2" rx="4" />
  <text x="710" y="330" fill="#64748b" text-anchor="middle" font-size="12" transform="rotate(-90 710,330)">D-02</text>
  
  <rect id="shelf-D-09" x="750" y="270" width="60" height="120" fill="#252f46" stroke="#334155" stroke-width="2" rx="4" />
  <text x="780" y="330" fill="#64748b" text-anchor="middle" font-size="12" transform="rotate(-90 780,330)">D-09</text>

  <text x="550" y="450" fill="#d8b4fe" font-family="sans-serif" font-weight="bold" font-size="20">HISTORY (E)</text>
  <rect id="shelf-E-01" x="520" y="470" width="60" height="120" fill="#252f46" stroke="#334155" stroke-width="2" rx="4" />
  <text x="550" y="530" fill="#64748b" text-anchor="middle" font-size="12" transform="rotate(-90 550,530)">E-01</text>

</svg>
