<svg viewBox="0 0 800 600" xmlns="http://www.w3.org/2000/svg">
  <rect width="800" height="600" fill="#151e32" />
  
  <rect x="620" y="0" width="180" height="600" fill="#0b1121" opacity="0.6" />
  <text x="710" y="300" text-anchor="middle" fill="#334155" font-family="sans-serif" font-size="20" font-weight="bold" transform="rotate(90 710,300)">ELEMENTARY AREA</text>
  <line x1="620" y1="0" x2="620" y2="600" stroke="#334155" stroke-width="2" stroke-dasharray="10,5"/>

  <path d="M 300 600 L 500 600 L 500 580 L 300 580 Z" fill="#1e293b" />
  <text x="400" y="570" text-anchor="middle" fill="#94a3b8" font-family="sans-serif" font-weight="bold" font-size="14">MAIN ENTRANCE</text>

  <circle id="kiosk-point" cx="400" cy="450" r="12" fill="#ef4444" stroke="white" stroke-width="3">
     <animate attributeName="r" values="12;15;12" dur="2s" repeatCount="indefinite" />
     <animate attributeName="opacity" values="1;0.7;1" dur="2s" repeatCount="indefinite" />
  </circle>
  <text x="400" y="485" text-anchor="middle" fill="#ef4444" font-family="sans-serif" font-weight="bold" font-size="12">YOU ARE HERE</text>

  <text x="140" y="40" text-anchor="middle" fill="#ffc4d6" font-family="sans-serif" font-weight="bold" font-size="18">FICTION (A)</text>
  <rect id="shelf-A-10" x="50" y="60" width="50" height="110" fill="#252f46" stroke="#475569" stroke-width="2" rx="4" />
  <text x="75" y="115" fill="#64748b" text-anchor="middle" font-size="10" transform="rotate(-90 75,115)">A-10</text>
  <rect id="shelf-A-12" x="115" y="60" width="50" height="110" fill="#252f46" stroke="#475569" stroke-width="2" rx="4" />
  <text x="140" y="115" fill="#64748b" text-anchor="middle" font-size="10" transform="rotate(-90 140,115)">A-12</text>
  <rect id="shelf-A-15" x="180" y="60" width="50" height="110" fill="#252f46" stroke="#475569" stroke-width="2" rx="4" />
  <text x="205" y="115" fill="#64748b" text-anchor="middle" font-size="10" transform="rotate(-90 205,115)">A-15</text>

  <text x="450" y="40" text-anchor="middle" fill="#c4b5fd" font-family="sans-serif" font-weight="bold" font-size="18">NON-FICTION (B)</text>
  <rect id="shelf-B-04" x="380" y="60" width="50" height="110" fill="#252f46" stroke="#475569" stroke-width="2" rx="4" />
  <text x="405" y="115" fill="#64748b" text-anchor="middle" font-size="10" transform="rotate(-90 405,115)">B-04</text>
  <rect id="shelf-B-11" x="450" y="60" width="50" height="110" fill="#252f46" stroke="#475569" stroke-width="2" rx="4" />
  <text x="475" y="115" fill="#64748b" text-anchor="middle" font-size="10" transform="rotate(-90 475,115)">B-11</text>

  <text x="140" y="230" text-anchor="middle" fill="#f9a8d4" font-family="sans-serif" font-weight="bold" font-size="18">ROMANCE (C)</text>
  <rect id="shelf-C-01" x="80" y="250" width="50" height="110" fill="#252f46" stroke="#475569" stroke-width="2" rx="4" />
  <text x="105" y="305" fill="#64748b" text-anchor="middle" font-size="10" transform="rotate(-90 105,305)">C-01</text>
  <rect id="shelf-C-05" x="150" y="250" width="50" height="110" fill="#252f46" stroke="#475569" stroke-width="2" rx="4" />
  <text x="175" y="305" fill="#64748b" text-anchor="middle" font-size="10" transform="rotate(-90 175,305)">C-05</text>

  <text x="450" y="230" text-anchor="middle" fill="#93c5fd" font-family="sans-serif" font-weight="bold" font-size="18">SCIENCE (D)</text>
  <rect id="shelf-D-02" x="380" y="250" width="50" height="110" fill="#252f46" stroke="#475569" stroke-width="2" rx="4" />
  <text x="405" y="305" fill="#64748b" text-anchor="middle" font-size="10" transform="rotate(-90 405,305)">D-02</text>
  <rect id="shelf-D-09" x="450" y="250" width="50" height="110" fill="#252f46" stroke="#475569" stroke-width="2" rx="4" />
  <text x="475" y="305" fill="#64748b" text-anchor="middle" font-size="10" transform="rotate(-90 475,305)">D-09</text>

  <text x="140" y="420" text-anchor="middle" fill="#d8b4fe" font-family="sans-serif" font-weight="bold" font-size="18">HISTORY (E)</text>
  <rect id="shelf-E-01" x="115" y="440" width="50" height="110" fill="#252f46" stroke="#475569" stroke-width="2" rx="4" />
  <text x="140" y="495" fill="#64748b" text-anchor="middle" font-size="10" transform="rotate(-90 140,495)">E-01</text>
</svg>
